<svg xmlns="http://www.w3.org/2000/svg" width="1200" height="750" viewBox="0 0 1200 750" fill="none">
  <defs>
    <linearGradient id="bg" x1="0" y1="0" x2="1200" y2="750" gradientUnits="userSpaceOnUse">
      <stop stop-color="#0c1929"/>
      <stop offset="0.5" stop-color="#0f2744"/>
      <stop offset="1" stop-color="#082f49"/>
    </linearGradient>
    <radialGradient id="glow" cx="0" cy="0" r="1" gradientUnits="userSpaceOnUse" gradientTransform="translate(900 180) rotate(90) scale(420 480)">
      <stop stop-color="#38bdf8" stop-opacity="0.45"/>
      <stop offset="1" stop-color="#38bdf8" stop-opacity="0"/>
    </radialGradient>
  </defs>
  <rect width="1200" height="750" fill="url(#bg)"/>
  <rect width="1200" height="750" fill="url(#glow)"/>
  <circle cx="220" cy="520" r="180" fill="#38bdf8" fill-opacity="0.08"/>
  <rect x="120" y="160" width="420" height="48" rx="12" fill="#38bdf8" fill-opacity="0.15"/>
  <rect x="120" y="240" width="560" height="28" rx="8" fill="#e2e8f0" fill-opacity="0.12"/>
  <rect x="120" y="290" width="420" height="20" rx="6" fill="#e2e8f0" fill-opacity="0.08"/>
  <rect x="120" y="380" width="200" height="52" rx="26" fill="#38bdf8" fill-opacity="0.9"/>
  <rect x="680" y="140" width="400" height="480" rx="24" fill="#0b1220" stroke="#38bdf8" stroke-opacity="0.25" stroke-width="2"/>
  <rect x="710" y="180" width="340" height="24" rx="6" fill="#38bdf8" fill-opacity="0.2"/>
  <rect x="710" y="230" width="340" height="120" rx="12" fill="#38bdf8" fill-opacity="0.08"/>
  <rect x="710" y="380" width="160" height="16" rx="4" fill="#94a3b8" fill-opacity="0.25"/>
  <rect x="710" y="420" width="340" height="16" rx="4" fill="#94a3b8" fill-opacity="0.15"/>
  <rect x="710" y="450" width="280" height="16" rx="4" fill="#94a3b8" fill-opacity="0.12"/>
  <text x="120" y="620" fill="#7dd3fc" font-family="system-ui,sans-serif" font-size="28" font-weight="600" letter-spacing="4">LATORIN</text>
</svg>
